<svg width="14" height="18" viewBox="0 0 14 18" fill="none" xmlns="http://www.w3.org/2000/svg">
<path d="M7.5775 0.216563C7.245 -0.0721875 6.74625 -0.0721875 6.41375 0.216563C2.14375 3.97906 0 7.25156 0 10.0341C0 14.3916 3.325 17.2091 7 17.2091C10.675 17.2091 14 14.3916 14 10.0341C14 7.25156 11.8562 3.97906 7.5775 0.216563ZM3.35125 10.2091C3.675 10.2091 3.9375 10.4366 3.99875 10.7516C4.3575 12.6941 5.99375 13.3591 7.18375 13.2628C7.56 13.2453 7.875 13.5428 7.875 13.9191C7.875 14.2691 7.595 14.5578 7.245 14.5753C5.38125 14.6891 3.2025 13.6216 2.70375 10.9703C2.68854 10.8765 2.6939 10.7805 2.71943 10.689C2.74497 10.5974 2.79009 10.5125 2.85166 10.4401C2.91324 10.3677 2.9898 10.3096 3.07606 10.2697C3.16232 10.2298 3.25621 10.2091 3.35125 10.2091Z" fill="#13BCC0"/>
</svg>
